<?xml version="1.0" encoding="UTF-8"?>
<svg xmlns="http://www.w3.org/2000/svg" xmlns:xlink="http://www.w3.org/1999/xlink" width="413.4pt" height="222.1pt" viewBox="0 0 413.4 222.1" version="1.1">
<defs>
<clipPath id="clip1">
  <path d="M 1 0 L 413.398438 0 L 413.398438 196 L 1 196 Z M 1 0 "/>
</clipPath>
<clipPath id="clip2">
  <path d="M 0 145 L 407 145 L 407 222.101563 L 0 222.101563 Z M 0 145 "/>
</clipPath>
</defs>
<g id="surface1">
<g clip-path="url(#clip1)" clip-rule="nonzero">
<path style=" stroke:none;fill-rule:evenodd;fill:rgb(0%,20.776367%,43.920898%);fill-opacity:1;" d="M 207.324219 -0.046875 C 321.183594 -0.046875 413.484375 43.746094 413.484375 97.765625 C 413.484375 151.789063 321.183594 195.582031 207.324219 195.582031 C 93.464844 195.582031 1.167969 151.789063 1.167969 97.765625 C 1.167969 43.746094 93.464844 -0.046875 207.324219 -0.046875 Z M 207.324219 -0.046875 "/>
</g>
<path style=" stroke:none;fill-rule:evenodd;fill:rgb(91.40625%,31.37207%,12.156677%);fill-opacity:1;" d="M 206.15625 33.597656 C 310.871094 33.597656 395.789063 62.074219 395.789063 97.1875 C 395.789063 132.300781 310.871094 160.773438 206.15625 160.773438 C 175.464844 160.773438 146.46875 158.320313 120.816406 153.976563 C 144.394531 157.753906 171.566406 159.40625 199.429688 159.40625 C 253.1875 159.40625 301.117188 150.921875 332.296875 137.679688 C 359.628906 127.417969 376.277344 113.808594 376.277344 98.878906 C 376.277344 66.9375 300.097656 41.039063 206.15625 41.039063 C 112.21875 41.039063 36.035156 66.9375 36.035156 98.878906 C 36.035156 110.550781 46.222656 121.410156 63.726563 130.5 L 90.171875 81.195313 L 77.046875 81.195313 L 80.859375 74.019531 L 140.378906 74.019531 C 164.671875 73.121094 163.800781 94.253906 134.117188 97.980469 C 139.316406 99.242188 143.585938 101.058594 141.285156 106.761719 C 139.863281 109.226563 138.441406 111.6875 137.019531 114.152344 C 134.734375 117.835938 140.210938 119.289063 144.34375 113.542969 C 145.054688 112.375 145.765625 111.203125 146.480469 110.035156 C 149.175781 110.035156 151.871094 110.035156 154.566406 110.035156 C 149.503906 122.347656 138.253906 127.152344 121.605469 125.445313 C 113.753906 124.707031 110.609375 121.082031 114.433594 114.152344 C 116.015625 111.609375 117.59375 109.0625 119.175781 106.515625 C 121.027344 103.371094 120.171875 101.242188 116.273438 101.488281 C 111.4375 101.488281 106.601563 101.488281 101.769531 101.488281 L 81.210938 138.113281 L 81.230469 138.125 L 77.8125 143.984375 C 40.136719 132.363281 16.523438 115.699219 16.523438 97.1875 C 16.523438 62.074219 101.441406 33.597656 206.15625 33.597656 Z M 113.046875 80.761719 L 105.972656 94.355469 C 110.464844 94.46875 114.949219 94.582031 119.4375 94.695313 C 129.164063 95.40625 142.480469 81.734375 127.070313 80.984375 Z M 113.046875 80.761719 "/>
<path style=" stroke:none;fill-rule:evenodd;fill:rgb(92.96875%,84.375%,36.473083%);fill-opacity:1;" d="M 176.964844 73.726563 L 172.984375 80.613281 L 186.675781 80.613281 L 161.972656 123.964844 L 183.066406 123.964844 L 206.65625 83.441406 L 202.496094 123.6875 L 219.433594 123.6875 L 259.394531 84.828125 L 237.46875 123.6875 L 259.949219 123.6875 L 287.703125 73.726563 L 257.171875 73.726563 L 227.476563 103.425781 L 230.527344 73.726563 Z M 176.964844 73.726563 "/>
<path style=" stroke:none;fill-rule:evenodd;fill:rgb(92.96875%,84.375%,36.473083%);fill-opacity:1;" d="M 302.394531 73.882813 L 337.71875 73.882813 L 319.03125 106.621094 C 317.605469 109.085938 316.183594 111.550781 314.761719 114.015625 C 312.480469 117.695313 317.949219 119.148438 322.089844 113.402344 C 322.796875 112.234375 323.511719 111.0625 324.222656 109.894531 C 326.921875 109.894531 329.613281 109.894531 332.308594 109.894531 C 327.242188 122.207031 316.003906 127.011719 299.351563 125.304688 C 291.496094 124.570313 288.355469 120.941406 292.179688 114.015625 L 296.921875 106.378906 L 311.09375 80.847656 L 300.058594 80.703125 Z M 302.394531 73.882813 "/>
<path style=" stroke:none;fill-rule:evenodd;fill:rgb(92.96875%,84.375%,36.473083%);fill-opacity:1;" d="M 336.464844 33.375 C 342.996094 31.402344 349.421875 32.230469 350.808594 35.21875 C 352.199219 38.203125 348.03125 42.222656 341.503906 44.191406 C 334.96875 46.160156 328.546875 45.335938 327.15625 42.347656 C 325.765625 39.359375 329.929688 35.34375 336.464844 33.375 Z M 336.464844 33.375 "/>
<path style=" stroke:none;fill-rule:evenodd;fill:rgb(0%,20.776367%,43.920898%);fill-opacity:1;" d="M 0.203125 156.394531 L 10.667969 145.558594 L 14.609375 149.359375 C 15.433594 150.15625 15.941406 150.84375 16.140625 151.425781 C 16.339844 152.003906 16.332031 152.652344 16.128906 153.363281 C 15.925781 154.082031 15.523438 154.746094 14.921875 155.367188 C 14.132813 156.183594 13.28125 156.640625 12.363281 156.738281 C 11.453125 156.832031 10.515625 156.554688 9.570313 155.910156 C 9.710938 156.425781 9.769531 156.871094 9.75 157.238281 C 9.699219 157.988281 9.558594 158.75 9.335938 159.511719 L 8.042969 163.960938 L 6.558594 162.53125 L 7.558594 159.136719 C 7.949219 157.8125 8.179688 156.882813 8.238281 156.351563 C 8.296875 155.816406 8.269531 155.394531 8.152344 155.078125 C 8.039063 154.761719 7.78125 154.410156 7.386719 154.03125 L 6.027344 152.71875 L 1.378906 157.527344 Z M 7.226563 151.476563 L 9.753906 153.917969 C 10.304688 154.449219 10.789063 154.785156 11.207031 154.929688 C 11.617188 155.074219 12.046875 155.082031 12.488281 154.957031 C 12.933594 154.835938 13.339844 154.582031 13.707031 154.203125 C 14.234375 153.65625 14.488281 153.070313 14.46875 152.449219 C 14.457031 151.828125 14.128906 151.210938 13.496094 150.601563 L 10.6875 147.890625 Z M 11.320313 167.007813 L 20.175781 154.820313 L 27.398438 160.070313 L 26.355469 161.511719 L 20.453125 157.21875 L 17.738281 160.949219 L 23.269531 164.96875 L 22.230469 166.398438 L 16.703125 162.382813 L 13.683594 166.53125 L 19.828125 170.988281 L 18.777344 172.429688 Z M 25.597656 177.207031 L 33.21875 166.320313 L 29.886719 163.988281 L 30.90625 162.53125 L 38.929688 168.148438 L 37.910156 169.605469 L 34.558594 167.257813 L 26.9375 178.144531 Z M 32.210938 181.136719 L 43.851563 170.464844 L 45.378906 171.34375 L 42.222656 186.917969 L 40.601563 185.984375 L 41.636719 181.3125 L 37.167969 178.730469 L 33.714844 182.003906 Z M 38.390625 177.5625 L 42.011719 179.652344 L 42.984375 175.398438 C 43.28125 174.09375 43.550781 173.042969 43.792969 172.257813 C 43.171875 173.015625 42.503906 173.734375 41.773438 174.414063 Z M 46.445313 188.839844 L 53.285156 175.417969 L 54.742188 176.160156 L 47.902344 189.582031 Z M 52.992188 191.960938 L 59.117188 178.199219 L 60.609375 178.863281 L 55.207031 191 L 60.761719 193.476563 L 60.039063 195.101563 Z M 66.621094 197.8125 L 72.019531 183.75 L 74.3125 184.628906 L 73.222656 195.636719 L 72.96875 197.929688 C 73.304688 197.464844 73.800781 196.789063 74.457031 195.910156 L 80.972656 187.1875 L 83.027344 187.972656 L 77.628906 202.039063 L 76.15625 201.472656 L 80.675781 189.703125 L 72.800781 200.183594 L 71.429688 199.660156 L 72.683594 186.40625 L 68.089844 198.375 Z M 84.65625 196.484375 C 85.40625 194.027344 86.523438 192.304688 88.007813 191.3125 C 89.492188 190.328125 91.039063 190.078125 92.652344 190.570313 C 93.695313 190.886719 94.554688 191.472656 95.230469 192.328125 C 95.910156 193.175781 96.332031 194.242188 96.484375 195.519531 C 96.640625 196.796875 96.484375 198.210938 96.011719 199.761719 C 95.355469 201.898438 94.339844 203.492188 92.964844 204.535156 C 91.4375 205.691406 89.8125 206.003906 88.089844 205.472656 C 86.34375 204.941406 85.171875 203.753906 84.582031 201.910156 C 84.035156 200.238281 84.058594 198.429688 84.65625 196.484375 Z M 86.257813 197.007813 C 85.71875 198.78125 85.683594 200.28125 86.167969 201.5 C 86.652344 202.71875 87.457031 203.5 88.578125 203.839844 C 89.71875 204.191406 90.835938 203.988281 91.914063 203.242188 C 92.992188 202.488281 93.828125 201.152344 94.410156 199.230469 C 94.789063 197.996094 94.925781 196.828125 94.828125 195.726563 C 94.746094 194.886719 94.464844 194.148438 93.984375 193.507813 C 93.503906 192.871094 92.894531 192.4375 92.160156 192.210938 C 90.980469 191.851563 89.859375 192.050781 88.796875 192.796875 C 87.730469 193.546875 86.886719 194.953125 86.257813 197.007813 Z M 101.765625 208.964844 L 104.980469 196.070313 L 101.035156 195.089844 L 101.464844 193.363281 L 110.964844 195.734375 L 110.535156 197.457031 L 106.566406 196.46875 L 103.351563 209.359375 Z M 112.53125 204.039063 C 113.066406 201.523438 114.027344 199.710938 115.421875 198.59375 C 116.816406 197.480469 118.339844 197.097656 119.984375 197.449219 C 121.050781 197.675781 121.960938 198.183594 122.710938 198.972656 C 123.460938 199.761719 123.964844 200.785156 124.234375 202.042969 C 124.503906 203.300781 124.464844 204.726563 124.128906 206.3125 C 123.664063 208.496094 122.796875 210.171875 121.507813 211.335938 C 120.09375 212.617188 118.503906 213.070313 116.734375 212.695313 C 114.949219 212.3125 113.679688 211.234375 112.925781 209.449219 C 112.242188 207.832031 112.109375 206.027344 112.53125 204.039063 Z M 114.175781 204.417969 C 113.789063 206.234375 113.886719 207.726563 114.476563 208.902344 C 115.066406 210.074219 115.933594 210.78125 117.078125 211.023438 C 118.253906 211.273438 119.339844 210.972656 120.351563 210.132813 C 121.359375 209.289063 122.074219 207.886719 122.492188 205.921875 C 122.757813 204.65625 122.796875 203.480469 122.597656 202.394531 C 122.445313 201.566406 122.101563 200.851563 121.566406 200.257813 C 121.03125 199.664063 120.386719 199.289063 119.636719 199.128906 C 118.433594 198.871094 117.328125 199.164063 116.339844 200.003906 C 115.339844 200.84375 114.628906 202.316406 114.175781 204.417969 Z M 127.394531 214.628906 L 130.011719 199.792969 L 135.402344 200.746094 C 136.53125 200.945313 137.339844 201.226563 137.828125 201.597656 C 138.3125 201.96875 138.671875 202.511719 138.902344 203.214844 C 139.132813 203.921875 139.171875 204.695313 139.023438 205.546875 C 138.824219 206.664063 138.378906 207.523438 137.671875 208.113281 C 136.964844 208.707031 136.035156 209 134.886719 208.992188 C 135.296875 209.339844 135.589844 209.675781 135.777344 209.992188 C 136.15625 210.644531 136.46875 211.351563 136.710938 212.109375 L 138.121094 216.519531 L 136.097656 216.164063 L 135.023438 212.789063 C 134.609375 211.476563 134.277344 210.578125 134.03125 210.101563 C 133.785156 209.625 133.523438 209.292969 133.253906 209.09375 C 132.976563 208.894531 132.566406 208.75 132.027344 208.65625 L 130.164063 208.328125 L 129.003906 214.914063 Z M 130.464844 206.625 L 133.925781 207.238281 C 134.679688 207.371094 135.269531 207.378906 135.695313 207.265625 C 136.117188 207.152344 136.480469 206.921875 136.777344 206.566406 C 137.078125 206.21875 137.269531 205.78125 137.363281 205.265625 C 137.496094 204.515625 137.378906 203.886719 137.015625 203.382813 C 136.65625 202.878906 136.039063 202.550781 135.175781 202.394531 L 131.335938 201.71875 Z M 145.816406 217.574219 L 147.914063 202.65625 L 149.53125 202.882813 L 147.4375 217.800781 Z M 153.191406 218.53125 L 154.765625 203.550781 L 156.433594 203.726563 L 161.652344 216.167969 L 162.890625 204.40625 L 164.445313 204.566406 L 162.871094 219.550781 L 161.203125 219.375 L 155.992188 206.925781 L 154.753906 218.695313 Z M 168.589844 220.171875 L 169.636719 205.144531 L 173.890625 205.441406 C 174.945313 205.515625 175.738281 205.664063 176.273438 205.886719 C 176.972656 206.175781 177.5625 206.65625 178.046875 207.328125 C 178.527344 208.003906 178.882813 208.832031 179.105469 209.816406 C 179.335938 210.808594 179.398438 211.960938 179.308594 213.289063 C 179.1875 214.988281 178.839844 216.417969 178.253906 217.570313 C 177.675781 218.71875 176.976563 219.515625 176.15625 219.957031 C 175.339844 220.394531 174.300781 220.570313 173.039063 220.484375 Z M 170.339844 218.511719 L 172.964844 218.695313 C 174.027344 218.769531 174.839844 218.652344 175.410156 218.347656 C 175.980469 218.042969 176.441406 217.515625 176.789063 216.769531 C 177.253906 215.777344 177.53125 214.570313 177.628906 213.148438 C 177.734375 211.628906 177.613281 210.414063 177.261719 209.515625 C 176.90625 208.613281 176.421875 207.996094 175.789063 207.65625 C 175.363281 207.425781 174.679688 207.277344 173.726563 207.210938 L 171.144531 207.03125 Z M 192.390625 206.40625 L 194.03125 206.464844 L 193.726563 215.164063 C 193.675781 216.625 193.496094 217.8125 193.179688 218.734375 C 192.863281 219.660156 192.316406 220.378906 191.546875 220.898438 C 190.785156 221.410156 189.820313 221.648438 188.664063 221.609375 C 187.03125 221.550781 185.828125 221.023438 185.050781 220.019531 C 184.273438 219.023438 183.929688 217.289063 184.015625 214.824219 L 184.320313 206.125 L 185.953125 206.183594 L 185.648438 214.871094 C 185.601563 216.230469 185.671875 217.222656 185.863281 217.839844 C 186.054688 218.457031 186.382813 218.929688 186.855469 219.265625 C 187.328125 219.601563 187.910156 219.785156 188.601563 219.808594 C 189.765625 219.847656 190.621094 219.550781 191.171875 218.90625 C 191.714844 218.269531 192.023438 217 192.089844 215.097656 Z M 198.71875 216.730469 L 200.257813 216.589844 C 200.328125 217.425781 200.503906 218.074219 200.785156 218.539063 C 201.070313 219.003906 201.476563 219.382813 202.015625 219.675781 C 202.550781 219.964844 203.160156 220.113281 203.839844 220.125 C 204.8125 220.144531 205.570313 219.921875 206.113281 219.453125 C 206.664063 218.988281 206.9375 218.375 206.953125 217.613281 C 206.964844 217.167969 206.867188 216.777344 206.679688 216.445313 C 206.492188 216.105469 206.199219 215.828125 205.8125 215.609375 C 205.421875 215.390625 204.578125 215.078125 203.273438 214.671875 C 202.117188 214.308594 201.289063 213.945313 200.804688 213.589844 C 200.316406 213.230469 199.941406 212.78125 199.679688 212.238281 C 199.410156 211.695313 199.285156 211.085938 199.296875 210.40625 C 199.320313 209.191406 199.730469 208.203125 200.53125 207.441406 C 201.335938 206.679688 202.402344 206.3125 203.738281 206.335938 C 204.65625 206.351563 205.453125 206.546875 206.140625 206.921875 C 206.820313 207.296875 207.34375 207.824219 207.714844 208.507813 C 208.085938 209.195313 208.269531 209.996094 208.285156 210.914063 L 206.714844 211.03125 C 206.640625 210.050781 206.363281 209.320313 205.867188 208.839844 C 205.378906 208.355469 204.671875 208.109375 203.757813 208.09375 C 202.839844 208.078125 202.128906 208.273438 201.632813 208.675781 C 201.136719 209.082031 200.886719 209.613281 200.878906 210.273438 C 200.863281 210.878906 201.03125 211.355469 201.382813 211.699219 C 201.734375 212.042969 202.527344 212.394531 203.769531 212.757813 C 204.980469 213.117188 205.835938 213.421875 206.324219 213.675781 C 207.070313 214.070313 207.628906 214.585938 208.003906 215.222656 C 208.378906 215.855469 208.550781 216.605469 208.535156 217.476563 C 208.523438 218.339844 208.308594 219.121094 207.894531 219.824219 C 207.472656 220.527344 206.921875 221.054688 206.214844 221.414063 C 205.511719 221.769531 204.671875 221.941406 203.691406 221.925781 C 202.164063 221.898438 200.953125 221.417969 200.0625 220.484375 C 199.171875 219.550781 198.722656 218.296875 198.71875 216.730469 Z M 216.785156 221.609375 L 216.320313 208.328125 L 212.253906 208.472656 L 212.191406 206.695313 L 221.976563 206.351563 L 222.039063 208.128906 L 217.953125 208.273438 L 218.421875 221.550781 Z M 227.078125 221.253906 L 226.027344 206.222656 L 231.492188 205.84375 C 232.636719 205.761719 233.484375 205.84375 234.050781 206.085938 C 234.613281 206.328125 235.089844 206.765625 235.484375 207.390625 C 235.878906 208.023438 236.105469 208.765625 236.164063 209.625 C 236.242188 210.757813 236.015625 211.699219 235.472656 212.445313 C 234.929688 213.1875 234.101563 213.695313 232.988281 213.96875 C 233.464844 214.210938 233.839844 214.460938 234.089844 214.726563 C 234.617188 215.265625 235.089844 215.875 235.503906 216.550781 L 237.945313 220.492188 L 235.894531 220.636719 L 234.039063 217.621094 C 233.316406 216.445313 232.777344 215.652344 232.421875 215.253906 C 232.066406 214.851563 231.734375 214.589844 231.421875 214.464844 C 231.109375 214.339844 230.675781 214.296875 230.128906 214.332031 L 228.242188 214.464844 L 228.714844 221.136719 Z M 228.121094 212.746094 L 231.628906 212.5 C 232.390625 212.445313 232.964844 212.3125 233.351563 212.097656 C 233.734375 211.886719 234.03125 211.574219 234.230469 211.160156 C 234.441406 210.75 234.523438 210.277344 234.484375 209.753906 C 234.433594 208.996094 234.171875 208.414063 233.691406 208.011719 C 233.222656 207.609375 232.546875 207.4375 231.671875 207.5 L 227.773438 207.773438 Z M 245.628906 220 L 244.960938 213.65625 L 239.320313 205.515625 L 241.300781 205.308594 L 244.183594 209.570313 C 244.757813 210.414063 245.265625 211.214844 245.714844 211.972656 C 245.988281 211.152344 246.34375 210.222656 246.773438 209.1875 L 248.6875 204.53125 L 250.578125 204.332031 L 246.585938 213.484375 L 247.253906 219.828125 Z M 257.753906 211.429688 C 257.390625 208.890625 257.675781 206.855469 258.601563 205.328125 C 259.53125 203.804688 260.828125 202.925781 262.503906 202.691406 C 263.578125 202.539063 264.601563 202.707031 265.578125 203.195313 C 266.550781 203.675781 267.382813 204.464844 268.0625 205.558594 C 268.746094 206.648438 269.199219 207.996094 269.425781 209.601563 C 269.734375 211.816406 269.488281 213.6875 268.679688 215.21875 C 267.789063 216.910156 266.445313 217.878906 264.660156 218.128906 C 262.851563 218.382813 261.289063 217.800781 259.972656 216.382813 C 258.773438 215.09375 258.03125 213.445313 257.753906 211.429688 Z M 259.425781 211.226563 C 259.683594 213.066406 260.285156 214.4375 261.242188 215.335938 C 262.191406 216.238281 263.253906 216.605469 264.410156 216.441406 C 265.59375 216.277344 266.519531 215.621094 267.183594 214.488281 C 267.839844 213.347656 268.03125 211.785156 267.753906 209.796875 C 267.574219 208.515625 267.203125 207.398438 266.648438 206.449219 C 266.21875 205.71875 265.652344 205.167969 264.945313 204.792969 C 264.238281 204.417969 263.507813 204.28125 262.746094 204.390625 C 261.527344 204.558594 260.589844 205.210938 259.945313 206.339844 C 259.296875 207.46875 259.128906 209.097656 259.425781 211.226563 Z M 275.359375 216.484375 L 272.742188 201.648438 L 278.136719 200.699219 C 279.265625 200.5 280.117188 200.492188 280.703125 200.671875 C 281.289063 200.855469 281.808594 201.238281 282.269531 201.820313 C 282.726563 202.40625 283.027344 203.121094 283.179688 203.972656 C 283.378906 205.089844 283.246094 206.050781 282.785156 206.847656 C 282.324219 207.644531 281.550781 208.238281 280.472656 208.625 C 280.972656 208.8125 281.367188 209.027344 281.648438 209.261719 C 282.230469 209.742188 282.761719 210.300781 283.246094 210.929688 L 286.085938 214.59375 L 284.058594 214.949219 L 281.898438 212.148438 C 281.058594 211.054688 280.441406 210.320313 280.046875 209.960938 C 279.648438 209.597656 279.289063 209.375 278.96875 209.28125 C 278.640625 209.1875 278.210938 209.191406 277.671875 209.285156 L 275.804688 209.613281 L 276.96875 216.199219 Z M 275.507813 207.914063 L 278.96875 207.304688 C 279.722656 207.171875 280.277344 206.976563 280.640625 206.722656 C 281.003906 206.476563 281.257813 206.132813 281.421875 205.699219 C 281.578125 205.269531 281.613281 204.792969 281.523438 204.273438 C 281.390625 203.523438 281.066406 202.976563 280.550781 202.625 C 280.039063 202.273438 279.351563 202.175781 278.484375 202.328125 L 274.640625 203.007813 Z M 294.863281 206.820313 L 294.46875 205.101563 L 299.558594 203.914063 L 300.816406 209.359375 C 300.214844 210.300781 299.535156 211.058594 298.789063 211.640625 C 298.046875 212.214844 297.230469 212.605469 296.351563 212.808594 C 295.175781 213.078125 294.058594 213.027344 293.003906 212.652344 C 291.949219 212.277344 291.023438 211.589844 290.222656 210.582031 C 289.421875 209.578125 288.839844 208.289063 288.476563 206.707031 C 288.105469 205.101563 288.058594 203.644531 288.324219 202.332031 C 288.589844 201.019531 289.09375 199.980469 289.839844 199.210938 C 290.585938 198.445313 291.550781 197.929688 292.746094 197.652344 C 293.628906 197.449219 294.433594 197.433594 295.175781 197.605469 C 295.910156 197.78125 296.558594 198.121094 297.128906 198.625 C 297.691406 199.125 298.203125 199.878906 298.660156 200.875 L 297.339844 201.6875 C 296.953125 200.902344 296.566406 200.339844 296.179688 199.996094 C 295.789063 199.652344 295.328125 199.421875 294.796875 199.300781 C 294.257813 199.175781 293.691406 199.183594 293.089844 199.324219 C 292.214844 199.523438 291.511719 199.910156 290.980469 200.480469 C 290.445313 201.046875 290.09375 201.824219 289.914063 202.808594 C 289.738281 203.792969 289.796875 204.929688 290.09375 206.21875 C 290.546875 208.179688 291.296875 209.554688 292.34375 210.339844 C 293.390625 211.128906 294.574219 211.375 295.886719 211.070313 C 296.511719 210.925781 297.121094 210.628906 297.714844 210.175781 C 298.296875 209.722656 298.738281 209.242188 299.027344 208.738281 L 298.398438 206.007813 Z M 305.351563 210.617188 L 305.765625 194.828125 L 307.453125 194.34375 L 316.464844 207.429688 L 314.671875 207.945313 L 312.027344 203.957031 L 307.066406 205.378906 L 307.019531 210.140625 Z M 307.074219 203.6875 L 311.09375 202.535156 L 308.714844 198.878906 C 307.976563 197.757813 307.410156 196.835938 307.007813 196.117188 C 307.128906 197.089844 307.175781 198.070313 307.160156 199.070313 Z M 320.394531 206.425781 L 315.742188 192.101563 L 317.339844 191.582031 L 327.164063 200.824219 L 323.511719 189.574219 L 325.003906 189.089844 L 329.652344 203.417969 L 328.058594 203.9375 L 318.234375 194.683594 L 321.890625 205.941406 Z M 335.484375 201.65625 L 330.578125 187.414063 L 332.128906 186.882813 L 337.027344 201.125 Z M 340.226563 194.867188 L 341.605469 194.164063 C 341.980469 194.910156 342.386719 195.445313 342.824219 195.769531 C 343.261719 196.097656 343.78125 196.296875 344.386719 196.363281 C 344.992188 196.433594 345.613281 196.34375 346.246094 196.101563 C 347.15625 195.75 347.777344 195.261719 348.105469 194.625 C 348.4375 193.984375 348.464844 193.3125 348.195313 192.601563 C 348.035156 192.1875 347.804688 191.859375 347.503906 191.621094 C 347.203125 191.378906 346.828125 191.230469 346.386719 191.171875 C 345.941406 191.117188 345.039063 191.140625 343.683594 191.253906 C 342.472656 191.351563 341.570313 191.324219 340.988281 191.175781 C 340.402344 191.027344 339.886719 190.75 339.4375 190.34375 C 338.984375 189.941406 338.640625 189.425781 338.394531 188.789063 C 337.964844 187.652344 337.972656 186.582031 338.429688 185.578125 C 338.886719 184.570313 339.742188 183.828125 340.988281 183.351563 C 341.84375 183.019531 342.660156 182.902344 343.433594 182.992188 C 344.210938 183.085938 344.890625 183.382813 345.488281 183.875 C 346.089844 184.375 346.5625 185.046875 346.921875 185.894531 L 345.503906 186.589844 C 345.074219 185.707031 344.546875 185.132813 343.898438 184.875 C 343.261719 184.609375 342.515625 184.644531 341.664063 184.972656 C 340.804688 185.300781 340.214844 185.75 339.914063 186.308594 C 339.605469 186.871094 339.574219 187.460938 339.808594 188.074219 C 340.027344 188.640625 340.359375 189.019531 340.816406 189.207031 C 341.269531 189.394531 342.136719 189.421875 343.425781 189.292969 C 344.683594 189.171875 345.589844 189.136719 346.136719 189.1875 C 346.976563 189.277344 347.6875 189.542969 348.269531 189.992188 C 348.855469 190.441406 349.300781 191.070313 349.609375 191.882813 C 349.921875 192.6875 350.015625 193.492188 349.894531 194.300781 C 349.769531 195.109375 349.449219 195.804688 348.929688 196.402344 C 348.414063 196.996094 347.699219 197.46875 346.785156 197.820313 C 345.359375 198.371094 344.058594 198.375 342.878906 197.847656 C 341.710938 197.3125 340.816406 196.320313 340.226563 194.867188 Z M 354.59375 194.414063 L 352.53125 178.753906 L 354.128906 178.011719 L 365.074219 189.53125 L 363.378906 190.320313 L 360.148438 186.792969 L 355.46875 188.972656 L 356.171875 193.683594 Z M 355.214844 187.300781 L 359.003906 185.535156 L 356.078125 182.296875 C 355.175781 181.304688 354.472656 180.484375 353.964844 179.832031 C 354.230469 180.777344 354.433594 181.738281 354.574219 182.726563 Z M 370.464844 186.753906 L 364.019531 175.132813 L 360.464844 177.105469 L 359.597656 175.550781 L 368.164063 170.800781 L 369.023438 172.355469 L 365.449219 174.339844 L 371.890625 185.960938 Z M 379.921875 181.539063 L 371.933594 168.761719 L 373.320313 167.898438 L 381.304688 180.671875 Z M 381.605469 171.839844 C 380.171875 169.710938 379.535156 167.757813 379.695313 165.980469 C 379.867188 164.207031 380.644531 162.84375 382.046875 161.902344 C 382.945313 161.292969 383.941406 160.996094 385.03125 161.003906 C 386.117188 161.011719 387.214844 161.359375 388.300781 162.039063 C 389.390625 162.722656 390.390625 163.734375 391.296875 165.078125 C 392.546875 166.929688 393.148438 168.722656 393.089844 170.453125 C 393.03125 172.363281 392.253906 173.820313 390.753906 174.832031 C 389.238281 175.851563 387.585938 176.011719 385.773438 175.316406 C 384.132813 174.683594 382.742188 173.527344 381.605469 171.839844 Z M 383.023438 170.921875 C 384.058594 172.460938 385.203125 173.429688 386.460938 173.820313 C 387.710938 174.210938 388.816406 174.078125 389.789063 173.421875 C 390.78125 172.753906 391.324219 171.761719 391.421875 170.453125 C 391.515625 169.140625 391.003906 167.652344 389.878906 165.988281 C 389.15625 164.914063 388.339844 164.074219 387.421875 163.460938 C 386.714844 162.992188 385.964844 162.746094 385.164063 162.71875 C 384.363281 162.691406 383.644531 162.890625 383.007813 163.320313 C 381.988281 164.007813 381.433594 165.003906 381.347656 166.300781 C 381.257813 167.601563 381.820313 169.140625 383.023438 170.921875 Z M 399.378906 168.117188 L 389.695313 156.578125 L 390.980469 155.5 L 403.554688 160.386719 L 395.953125 151.324219 L 397.152344 150.320313 L 406.839844 161.859375 L 405.550781 162.9375 L 392.972656 158.039063 L 400.585938 167.105469 Z M 399.378906 168.117188 "/>
<g clip-path="url(#clip2)" clip-rule="nonzero">
<path style="fill:none;stroke-width:2.16;stroke-linecap:butt;stroke-linejoin:round;stroke:rgb(0%,20.776367%,43.920898%);stroke-opacity:1;stroke-miterlimit:4;" d="M 2.03125 657.054688 L 106.679688 765.414063 L 146.09375 727.40625 C 154.335938 719.4375 159.414063 712.5625 161.40625 706.742188 C 163.398438 700.960938 163.320313 694.476563 161.289063 687.367188 C 159.257813 680.179688 155.234375 673.539063 149.21875 667.328125 C 141.328125 659.164063 132.8125 654.59375 123.632813 653.617188 C 114.53125 652.679688 105.15625 655.453125 95.703125 661.898438 C 97.109375 656.742188 97.695313 652.289063 97.5 648.617188 C 96.992188 641.117188 95.585938 633.5 93.359375 625.882813 L 80.429688 581.390625 L 65.585938 595.6875 L 75.585938 629.632813 C 79.492188 642.875 81.796875 652.171875 82.382813 657.484375 C 82.96875 662.835938 82.695313 667.054688 81.523438 670.21875 C 80.390625 673.382813 77.8125 676.898438 73.867188 680.6875 L 60.273438 693.8125 L 13.789063 645.726563 Z M 72.265625 706.234375 L 97.539063 681.820313 C 103.046875 676.507813 107.890625 673.148438 112.070313 671.703125 C 116.171875 670.257813 120.46875 670.179688 124.882813 671.429688 C 129.335938 672.640625 133.398438 675.179688 137.070313 678.96875 C 142.34375 684.4375 144.882813 690.296875 144.6875 696.507813 C 144.570313 702.71875 141.289063 708.890625 134.960938 714.984375 L 106.875 742.09375 Z M 113.203125 550.921875 L 201.757813 672.796875 L 273.984375 620.296875 L 263.554688 605.882813 L 204.53125 648.8125 L 177.382813 611.507813 L 232.695313 571.3125 L 222.304688 557.015625 L 167.03125 597.171875 L 136.835938 555.6875 L 198.28125 511.117188 L 187.773438 496.703125 Z M 255.976563 448.929688 L 332.1875 557.796875 L 298.867188 581.117188 L 309.0625 595.6875 L 389.296875 539.515625 L 379.101563 524.945313 L 345.585938 548.421875 L 269.375 439.554688 Z M 322.109375 409.632813 L 438.515625 516.351563 L 453.789063 507.5625 L 422.226563 351.820313 L 406.015625 361.15625 L 416.367188 407.875 L 371.679688 433.695313 L 337.148438 400.960938 Z M 383.90625 445.375 L 420.117188 424.476563 L 429.84375 467.015625 C 432.8125 480.0625 435.507813 490.570313 437.929688 498.421875 C 431.71875 490.84375 425.039063 483.65625 417.734375 476.859375 Z M 464.453125 332.601563 L 532.851563 466.820313 L 547.421875 459.398438 L 479.023438 325.179688 Z M 529.921875 301.390625 L 591.171875 439.007813 L 606.09375 432.367188 L 552.070313 311 L 607.617188 286.234375 L 600.390625 269.984375 Z M 666.210938 242.875 L 720.195313 383.5 L 743.125 374.710938 L 732.226563 264.632813 L 729.6875 241.703125 C 733.046875 246.351563 738.007813 253.109375 744.570313 261.898438 L 809.726563 349.125 L 830.273438 341.273438 L 776.289063 200.609375 L 761.5625 206.273438 L 806.757813 323.96875 L 728.007813 219.164063 L 714.296875 224.398438 L 726.835938 356.9375 L 680.898438 237.25 Z M 846.5625 256.15625 C 854.0625 280.726563 865.234375 297.953125 880.078125 307.875 C 894.921875 317.71875 910.390625 320.21875 926.523438 315.296875 C 936.953125 312.132813 945.546875 306.273438 952.304688 297.71875 C 959.101563 289.242188 963.320313 278.578125 964.84375 265.804688 C 966.40625 253.03125 964.84375 238.890625 960.117188 223.382813 C 953.554688 202.015625 943.398438 186.078125 929.648438 175.648438 C 914.375 164.085938 898.125 160.960938 880.898438 166.273438 C 863.4375 171.585938 851.71875 183.460938 845.820313 201.898438 C 840.351563 218.617188 840.585938 236.703125 846.5625 256.15625 Z M 862.578125 250.921875 C 857.1875 233.1875 856.835938 218.1875 861.679688 206 C 866.523438 193.8125 874.570313 186 885.78125 182.601563 C 897.1875 179.085938 908.359375 181.117188 919.140625 188.578125 C 929.921875 196.117188 938.28125 209.476563 944.101563 228.695313 C 947.890625 241.039063 949.257813 252.71875 948.28125 263.734375 C 947.460938 272.132813 944.648438 279.515625 939.84375 285.921875 C 935.039063 292.289063 928.945313 296.625 921.601563 298.890625 C 909.804688 302.484375 898.59375 300.492188 887.96875 293.03125 C 877.304688 285.53125 868.867188 271.46875 862.578125 250.921875 Z M 1017.65625 131.351563 L 1049.804688 260.296875 L 1010.351563 270.101563 L 1014.648438 287.367188 L 1109.648438 263.65625 L 1105.351563 246.429688 L 1065.664063 256.3125 L 1033.515625 127.40625 Z M 1125.3125 180.609375 C 1130.664063 205.765625 1140.273438 223.890625 1154.21875 235.0625 C 1168.164063 246.195313 1183.398438 250.023438 1199.84375 246.507813 C 1210.507813 244.242188 1219.609375 239.164063 1227.109375 231.273438 C 1234.609375 223.382813 1239.648438 213.148438 1242.34375 200.570313 C 1245.039063 187.992188 1244.648438 173.734375 1241.289063 157.875 C 1236.640625 136.039063 1227.96875 119.28125 1215.078125 107.640625 C 1200.9375 94.828125 1185.039063 90.296875 1167.34375 94.046875 C 1149.492188 97.875 1136.796875 108.65625 1129.257813 126.507813 C 1122.421875 142.679688 1121.09375 160.726563 1125.3125 180.609375 Z M 1141.757813 176.820313 C 1137.890625 158.65625 1138.867188 143.734375 1144.765625 131.976563 C 1150.664063 120.257813 1159.335938 113.1875 1170.78125 110.765625 C 1182.539063 108.265625 1193.398438 111.273438 1203.515625 119.671875 C 1213.59375 128.109375 1220.742188 142.132813 1224.921875 161.78125 C 1227.578125 174.4375 1227.96875 186.195313 1225.976563 197.054688 C 1224.453125 205.335938 1221.015625 212.484375 1215.664063 218.421875 C 1210.3125 224.359375 1203.867188 228.109375 1196.367188 229.710938 C 1184.335938 232.289063 1173.28125 229.359375 1163.398438 220.960938 C 1153.398438 212.5625 1146.289063 197.835938 1141.757813 176.820313 Z M 1273.945313 74.710938 L 1300.117188 223.070313 L 1354.023438 213.539063 C 1365.3125 211.546875 1373.398438 208.734375 1378.28125 205.023438 C 1383.125 201.3125 1386.71875 195.882813 1389.023438 188.851563 C 1391.328125 181.78125 1391.71875 174.046875 1390.234375 165.53125 C 1388.242188 154.359375 1383.789063 145.765625 1376.71875 139.867188 C 1369.648438 133.929688 1360.351563 131 1348.867188 131.078125 C 1352.96875 127.601563 1355.898438 124.242188 1357.773438 121.078125 C 1361.5625 114.554688 1364.6875 107.484375 1367.109375 99.90625 L 1381.210938 55.804688 L 1360.976563 59.359375 L 1350.234375 93.109375 C 1346.09375 106.234375 1342.773438 115.21875 1340.3125 119.984375 C 1337.851563 124.75 1335.234375 128.070313 1332.539063 130.0625 C 1329.765625 132.054688 1325.664063 133.5 1320.273438 134.4375 L 1301.640625 137.71875 L 1290.039063 71.859375 Z M 1304.648438 154.75 L 1339.257813 148.617188 C 1346.796875 147.289063 1352.695313 147.210938 1356.953125 148.34375 C 1361.171875 149.476563 1364.804688 151.78125 1367.773438 155.335938 C 1370.78125 158.8125 1372.695313 163.1875 1373.632813 168.34375 C 1374.960938 175.84375 1373.789063 182.132813 1370.15625 187.171875 C 1366.5625 192.210938 1360.390625 195.492188 1351.757813 197.054688 L 1313.359375 203.8125 Z M 1458.164063 45.257813 L 1479.140625 194.4375 L 1495.3125 192.171875 L 1474.375 42.992188 Z M 1531.914063 35.6875 L 1547.65625 185.492188 L 1564.335938 183.734375 L 1616.523438 59.320313 L 1628.90625 176.9375 L 1644.453125 175.335938 L 1628.710938 25.492188 L 1612.03125 27.25 L 1559.921875 151.742188 L 1547.539063 34.046875 Z M 1685.898438 19.28125 L 1696.367188 169.554688 L 1738.90625 166.585938 C 1749.453125 165.84375 1757.382813 164.359375 1762.734375 162.132813 C 1769.726563 159.242188 1775.625 154.4375 1780.46875 147.71875 C 1785.273438 140.960938 1788.828125 132.679688 1791.054688 122.835938 C 1793.359375 112.914063 1793.984375 101.390625 1793.085938 88.109375 C 1791.875 71.117188 1788.398438 56.820313 1782.539063 45.296875 C 1776.757813 33.8125 1769.765625 25.84375 1761.5625 21.429688 C 1753.398438 17.054688 1743.007813 15.296875 1730.390625 16.15625 Z M 1703.398438 35.882813 L 1729.648438 34.046875 C 1740.273438 33.304688 1748.398438 34.476563 1754.101563 37.523438 C 1759.804688 40.570313 1764.414063 45.84375 1767.890625 53.304688 C 1772.539063 63.226563 1775.3125 75.296875 1776.289063 89.515625 C 1777.34375 104.710938 1776.132813 116.859375 1772.617188 125.84375 C 1769.0625 134.867188 1764.21875 141.039063 1757.890625 144.4375 C 1753.632813 146.742188 1746.796875 148.226563 1737.265625 148.890625 L 1711.445313 150.6875 Z M 1923.90625 156.9375 L 1940.3125 156.351563 L 1937.265625 69.359375 C 1936.757813 54.75 1934.960938 42.875 1931.796875 33.65625 C 1928.632813 24.398438 1923.164063 17.210938 1915.46875 12.015625 C 1907.851563 6.898438 1898.203125 4.515625 1886.640625 4.90625 C 1870.3125 5.492188 1858.28125 10.765625 1850.507813 20.804688 C 1842.734375 30.765625 1839.296875 48.109375 1840.15625 72.757813 L 1843.203125 159.75 L 1859.53125 159.164063 L 1856.484375 72.289063 C 1856.015625 58.695313 1856.71875 48.773438 1858.632813 42.601563 C 1860.546875 36.429688 1863.828125 31.703125 1868.554688 28.34375 C 1873.28125 24.984375 1879.101563 23.148438 1886.015625 22.914063 C 1897.65625 22.523438 1906.210938 25.492188 1911.71875 31.9375 C 1917.148438 38.304688 1920.234375 51 1920.898438 70.023438 Z M 1987.1875 53.695313 L 2002.578125 55.101563 C 2003.28125 46.742188 2005.039063 40.257813 2007.851563 35.609375 C 2010.703125 30.960938 2014.765625 27.171875 2020.15625 24.242188 C 2025.507813 21.351563 2031.601563 19.867188 2038.398438 19.75 C 2048.125 19.554688 2055.703125 21.78125 2061.132813 26.46875 C 2066.640625 31.117188 2069.375 37.25 2069.53125 44.867188 C 2069.648438 49.320313 2068.671875 53.226563 2066.796875 56.546875 C 2064.921875 59.945313 2061.992188 62.71875 2058.125 64.90625 C 2054.21875 67.09375 2045.78125 70.21875 2032.734375 74.28125 C 2021.171875 77.914063 2012.890625 81.546875 2008.046875 85.101563 C 2003.164063 88.695313 1999.414063 93.1875 1996.796875 98.617188 C 1994.101563 104.046875 1992.851563 110.140625 1992.96875 116.9375 C 1993.203125 129.085938 1997.304688 138.96875 2005.3125 146.585938 C 2013.359375 154.203125 2024.023438 157.875 2037.382813 157.640625 C 2046.5625 157.484375 2054.53125 155.53125 2061.40625 151.78125 C 2068.203125 148.03125 2073.4375 142.757813 2077.148438 135.921875 C 2080.859375 129.046875 2082.695313 121.039063 2082.851563 111.859375 L 2067.148438 110.6875 C 2066.40625 120.492188 2063.632813 127.796875 2058.671875 132.601563 C 2053.789063 137.445313 2046.71875 139.90625 2037.578125 140.0625 C 2028.398438 140.21875 2021.289063 138.265625 2016.328125 134.242188 C 2011.367188 130.179688 2008.867188 124.867188 2008.789063 118.265625 C 2008.632813 112.210938 2010.3125 107.445313 2013.828125 104.007813 C 2017.34375 100.570313 2025.273438 97.054688 2037.695313 93.421875 C 2049.804688 89.828125 2058.359375 86.78125 2063.242188 84.242188 C 2070.703125 80.296875 2076.289063 75.140625 2080.039063 68.773438 C 2083.789063 62.445313 2085.507813 54.945313 2085.351563 46.234375 C 2085.234375 37.601563 2083.085938 29.789063 2078.945313 22.757813 C 2074.726563 15.726563 2069.21875 10.453125 2062.148438 6.859375 C 2055.117188 3.304688 2046.71875 1.585938 2036.914063 1.742188 C 2021.640625 2.015625 2009.53125 6.820313 2000.625 16.15625 C 1991.71875 25.492188 1987.226563 38.03125 1987.1875 53.695313 Z M 2167.851563 4.90625 L 2163.203125 137.71875 L 2122.539063 136.273438 L 2121.914063 154.046875 L 2219.765625 157.484375 L 2220.390625 139.710938 L 2179.53125 138.265625 L 2184.21875 5.492188 Z M 2270.78125 8.460938 L 2260.273438 158.773438 L 2314.921875 162.5625 C 2326.367188 163.382813 2334.84375 162.5625 2340.507813 160.140625 C 2346.132813 157.71875 2350.898438 153.34375 2354.84375 147.09375 C 2358.789063 140.765625 2361.054688 133.34375 2361.640625 124.75 C 2362.421875 113.421875 2360.15625 104.007813 2354.726563 96.546875 C 2349.296875 89.125 2341.015625 84.046875 2329.882813 81.3125 C 2334.648438 78.890625 2338.398438 76.390625 2340.898438 73.734375 C 2346.171875 68.34375 2350.898438 62.25 2355.039063 55.492188 L 2379.453125 16.078125 L 2358.945313 14.632813 L 2340.390625 44.789063 C 2333.164063 56.546875 2327.773438 64.476563 2324.21875 68.460938 C 2320.664063 72.484375 2317.34375 75.101563 2314.21875 76.351563 C 2311.09375 77.601563 2306.757813 78.03125 2301.289063 77.679688 L 2282.421875 76.351563 L 2287.148438 9.632813 Z M 2281.210938 93.539063 L 2316.289063 96 C 2323.90625 96.546875 2329.648438 97.875 2333.515625 100.023438 C 2337.34375 102.132813 2340.3125 105.257813 2342.304688 109.398438 C 2344.414063 113.5 2345.234375 118.226563 2344.84375 123.460938 C 2344.335938 131.039063 2341.71875 136.859375 2336.914063 140.882813 C 2332.226563 144.90625 2325.46875 146.625 2316.71875 146 L 2277.734375 143.265625 Z M 2456.289063 21 L 2449.609375 84.4375 L 2393.203125 165.84375 L 2413.007813 167.914063 L 2441.835938 125.296875 C 2447.578125 116.859375 2452.65625 108.851563 2457.148438 101.273438 C 2459.882813 109.476563 2463.4375 118.773438 2467.734375 129.125 L 2486.875 175.6875 L 2505.78125 177.679688 L 2465.859375 86.15625 L 2472.539063 22.71875 Z M 2577.539063 106.703125 C 2573.90625 132.09375 2576.757813 152.445313 2586.015625 167.71875 C 2595.3125 182.953125 2608.28125 191.742188 2625.039063 194.085938 C 2635.78125 195.609375 2646.015625 193.929688 2655.78125 189.046875 C 2665.507813 184.242188 2673.828125 176.351563 2680.625 165.414063 C 2687.460938 154.515625 2691.992188 141.039063 2694.257813 124.984375 C 2697.34375 102.835938 2694.882813 84.125 2686.796875 68.8125 C 2677.890625 51.898438 2664.453125 42.210938 2646.601563 39.710938 C 2628.515625 37.171875 2612.890625 42.992188 2599.726563 57.171875 C 2587.734375 70.0625 2580.3125 86.546875 2577.539063 106.703125 Z M 2594.257813 108.734375 C 2596.835938 90.335938 2602.851563 76.625 2612.421875 67.640625 C 2621.914063 58.617188 2632.539063 54.945313 2644.101563 56.585938 C 2655.9375 58.226563 2665.195313 64.789063 2671.835938 76.117188 C 2678.398438 87.523438 2680.3125 103.148438 2677.539063 123.03125 C 2675.742188 135.84375 2672.03125 147.015625 2666.484375 156.507813 C 2662.1875 163.8125 2656.523438 169.320313 2649.453125 173.070313 C 2642.382813 176.820313 2635.078125 178.1875 2627.460938 177.09375 C 2615.273438 175.414063 2605.898438 168.890625 2599.453125 157.601563 C 2592.96875 146.3125 2591.289063 130.023438 2594.257813 108.734375 Z M 2753.59375 56.15625 L 2727.421875 204.515625 L 2781.367188 214.007813 C 2792.65625 216 2801.171875 216.078125 2807.03125 214.28125 C 2812.890625 212.445313 2818.085938 208.617188 2822.695313 202.796875 C 2827.265625 196.9375 2830.273438 189.789063 2831.796875 181.273438 C 2833.789063 170.101563 2832.460938 160.492188 2827.851563 152.523438 C 2823.242188 144.554688 2815.507813 138.617188 2804.726563 134.75 C 2809.726563 132.875 2813.671875 130.726563 2816.484375 128.382813 C 2822.304688 123.578125 2827.617188 117.992188 2832.460938 111.703125 L 2860.859375 75.0625 L 2840.585938 71.507813 L 2818.984375 99.515625 C 2810.585938 110.453125 2804.414063 117.796875 2800.46875 121.390625 C 2796.484375 125.023438 2792.890625 127.25 2789.6875 128.1875 C 2786.40625 129.125 2782.109375 129.085938 2776.71875 128.148438 L 2758.046875 124.867188 L 2769.6875 59.007813 Z M 2755.078125 141.859375 L 2789.6875 147.953125 C 2797.226563 149.28125 2802.773438 151.234375 2806.40625 153.773438 C 2810.039063 156.234375 2812.578125 159.671875 2814.21875 164.007813 C 2815.78125 168.304688 2816.132813 173.070313 2815.234375 178.265625 C 2813.90625 185.765625 2810.664063 191.234375 2805.507813 194.75 C 2800.390625 198.265625 2793.515625 199.242188 2784.84375 197.71875 L 2746.40625 190.921875 Z M 2948.632813 152.796875 L 2944.6875 169.984375 L 2995.585938 181.859375 L 3008.164063 127.40625 C 3002.148438 117.992188 2995.351563 110.414063 2987.890625 104.59375 C 2980.46875 98.851563 2972.304688 94.945313 2963.515625 92.914063 C 2951.757813 90.21875 2940.585938 90.726563 2930.039063 94.476563 C 2919.492188 98.226563 2910.234375 105.101563 2902.226563 115.179688 C 2894.21875 125.21875 2888.398438 138.109375 2884.765625 153.929688 C 2881.054688 169.984375 2880.585938 184.554688 2883.242188 197.679688 C 2885.898438 210.804688 2890.9375 221.195313 2898.398438 228.890625 C 2905.859375 236.546875 2915.507813 241.703125 2927.460938 244.476563 C 2936.289063 246.507813 2944.335938 246.664063 2951.757813 244.945313 C 2959.101563 243.1875 2965.585938 239.789063 2971.289063 234.75 C 2976.914063 229.75 2982.03125 222.210938 2986.601563 212.25 L 2973.398438 204.125 C 2969.53125 211.976563 2965.664063 217.601563 2961.796875 221.039063 C 2957.890625 224.476563 2953.28125 226.78125 2947.96875 227.992188 C 2942.578125 229.242188 2936.914063 229.164063 2930.898438 227.757813 C 2922.148438 225.765625 2915.117188 221.898438 2909.804688 216.195313 C 2904.453125 210.53125 2900.9375 202.757813 2899.140625 192.914063 C 2897.382813 183.070313 2897.96875 171.703125 2900.9375 158.8125 C 2905.46875 139.203125 2912.96875 125.453125 2923.4375 117.601563 C 2933.90625 109.710938 2945.742188 107.25 2958.867188 110.296875 C 2965.117188 111.742188 2971.210938 114.710938 2977.148438 119.242188 C 2982.96875 123.773438 2987.382813 128.578125 2990.273438 133.617188 L 2983.984375 160.921875 Z M 3053.515625 114.828125 L 3057.65625 272.71875 L 3074.53125 277.5625 L 3164.648438 146.703125 L 3146.71875 141.546875 L 3120.273438 181.429688 L 3070.664063 167.210938 L 3070.195313 119.59375 Z M 3070.742188 184.125 L 3110.9375 195.648438 L 3087.148438 232.210938 C 3079.765625 243.421875 3074.101563 252.640625 3070.078125 259.828125 C 3071.289063 250.101563 3071.757813 240.296875 3071.601563 230.296875 Z M 3203.945313 156.742188 L 3157.421875 299.984375 L 3173.398438 305.179688 L 3271.640625 212.757813 L 3235.117188 325.257813 L 3250.039063 330.101563 L 3296.523438 186.820313 L 3280.585938 181.625 L 3182.34375 274.164063 L 3218.90625 161.585938 Z M 3354.84375 204.4375 L 3305.78125 346.859375 L 3321.289063 352.171875 L 3370.273438 209.75 Z M 3402.265625 272.328125 L 3416.054688 279.359375 C 3419.804688 271.898438 3423.867188 266.546875 3428.242188 263.304688 C 3432.617188 260.023438 3437.8125 258.03125 3443.867188 257.367188 C 3449.921875 256.664063 3456.132813 257.5625 3462.460938 259.984375 C 3471.5625 263.5 3477.773438 268.382813 3481.054688 274.75 C 3484.375 281.15625 3484.648438 287.875 3481.953125 294.984375 C 3480.351563 299.125 3478.046875 302.40625 3475.039063 304.789063 C 3472.03125 307.210938 3468.28125 308.695313 3463.867188 309.28125 C 3459.414063 309.828125 3450.390625 309.59375 3436.835938 308.460938 C 3424.726563 307.484375 3415.703125 307.757813 3409.882813 309.242188 C 3404.023438 310.726563 3398.867188 313.5 3394.375 317.5625 C 3389.84375 321.585938 3386.40625 326.742188 3383.945313 333.109375 C 3379.648438 344.476563 3379.726563 355.179688 3384.296875 365.21875 C 3388.867188 375.296875 3397.421875 382.71875 3409.882813 387.484375 C 3418.4375 390.804688 3426.601563 391.976563 3434.335938 391.078125 C 3442.109375 390.140625 3448.90625 387.171875 3454.882813 382.25 C 3460.898438 377.25 3465.625 370.53125 3469.21875 362.054688 L 3455.039063 355.101563 C 3450.742188 363.929688 3445.46875 369.671875 3438.984375 372.25 C 3432.617188 374.90625 3425.15625 374.554688 3416.640625 371.273438 C 3408.046875 367.992188 3402.148438 363.5 3399.140625 357.914063 C 3396.054688 352.289063 3395.742188 346.390625 3398.085938 340.257813 C 3400.273438 334.59375 3403.59375 330.804688 3408.164063 328.929688 C 3412.695313 327.054688 3421.367188 326.78125 3434.257813 328.070313 C 3446.835938 329.28125 3455.898438 329.632813 3461.367188 329.125 C 3469.765625 328.226563 3476.875 325.570313 3482.695313 321.078125 C 3488.554688 316.585938 3493.007813 310.296875 3496.09375 302.171875 C 3499.21875 294.125 3500.15625 286.078125 3498.945313 277.992188 C 3497.695313 269.90625 3494.492188 262.953125 3489.296875 256.976563 C 3484.140625 251.039063 3476.992188 246.3125 3467.851563 242.796875 C 3453.59375 237.289063 3440.585938 237.25 3428.789063 242.523438 C 3417.109375 247.875 3408.164063 257.796875 3402.265625 272.328125 Z M 3545.9375 276.859375 L 3525.3125 433.460938 L 3541.289063 440.882813 L 3650.742188 325.6875 L 3633.789063 317.796875 L 3601.484375 353.070313 L 3554.6875 331.273438 L 3561.71875 284.164063 Z M 3552.148438 347.992188 L 3590.039063 365.648438 L 3560.78125 398.03125 C 3551.757813 407.953125 3544.726563 416.15625 3539.648438 422.679688 C 3542.304688 413.226563 3544.335938 403.617188 3545.742188 393.734375 Z M 3704.648438 353.460938 L 3640.195313 469.671875 L 3604.648438 449.945313 L 3595.976563 465.492188 L 3681.640625 512.992188 L 3690.234375 497.445313 L 3654.492188 477.601563 L 3718.90625 361.390625 Z M 3799.21875 405.609375 L 3719.335938 533.382813 L 3733.203125 542.015625 L 3813.046875 414.28125 Z M 3816.054688 502.601563 C 3801.71875 523.890625 3795.351563 543.421875 3796.953125 561.195313 C 3798.671875 578.929688 3806.445313 592.5625 3820.46875 601.976563 C 3829.453125 608.070313 3839.414063 611.039063 3850.3125 610.960938 C 3861.171875 610.882813 3872.148438 607.40625 3883.007813 600.609375 C 3893.90625 593.773438 3903.90625 583.65625 3912.96875 570.21875 C 3925.46875 551.703125 3931.484375 533.773438 3930.898438 516.46875 C 3930.3125 497.367188 3922.539063 482.796875 3907.539063 472.679688 C 3892.382813 462.484375 3875.859375 460.882813 3857.734375 467.835938 C 3841.328125 474.164063 3827.421875 485.726563 3816.054688 502.601563 Z M 3830.234375 511.78125 C 3840.585938 496.390625 3852.03125 486.703125 3864.609375 482.796875 C 3877.109375 478.890625 3888.164063 480.21875 3897.890625 486.78125 C 3907.8125 493.460938 3913.242188 503.382813 3914.21875 516.46875 C 3915.15625 529.59375 3910.039063 544.476563 3898.789063 561.117188 C 3891.5625 571.859375 3883.398438 580.257813 3874.21875 586.390625 C 3867.148438 591.078125 3859.648438 593.539063 3851.640625 593.8125 C 3843.632813 594.085938 3836.445313 592.09375 3830.078125 587.796875 C 3819.882813 580.921875 3814.335938 570.960938 3813.476563 557.992188 C 3812.578125 544.984375 3818.203125 529.59375 3830.234375 511.78125 Z M 3993.789063 539.828125 L 3896.953125 655.21875 L 3909.804688 666 L 4035.546875 617.132813 L 3959.53125 707.757813 L 3971.523438 717.796875 L 4068.398438 602.40625 L 4055.507813 591.625 L 3929.726563 640.609375 L 4005.859375 549.945313 Z M 3993.789063 539.828125 " transform="matrix(0.1,0,0,-0.1,0,222.1)"/>
</g>
</g>
</svg>
